<svg width="2000" height="1200" viewBox="0 0 2000 1200" fill="none" xmlns="http://www.w3.org/2000/svg">
<rect width="2000" height="1200" fill="white"/>
<path d="M820 0H2000V1200H1493L820 0Z" fill="url(#paint0_linear_5106_80)"/>
<g opacity="0.65">
<circle cx="1588.59" cy="438.406" r="151.406" fill="white"/>
<path d="M1588 287C1663.09 287 1725.45 341.444 1737.78 413.008C1734.85 407.974 1731.46 404.105 1727.6 401.4C1722.97 398.148 1717.98 396.129 1712.62 395.344C1707.2 394.438 1701.7 394.255 1696.1 394.794C1690.5 395.333 1684.96 396.142 1679.49 397.223C1674.01 398.303 1668.95 399.173 1664.32 399.833C1659.68 400.493 1655.68 400.46 1652.31 399.736C1649 398.832 1646.56 396.815 1645 393.685C1643.44 390.554 1643.5 387.665 1645.18 385.018C1646.81 382.25 1649.61 379.874 1653.58 377.89C1657.08 376.146 1661.41 374.733 1666.59 373.652C1671.82 372.391 1677.42 371.552 1683.38 371.134C1689.4 370.535 1695.33 370.507 1701.17 371.052L1700.64 338.821C1691.91 337.914 1682.43 338.361 1672.2 340.161C1661.97 341.962 1652.22 345.177 1642.95 349.807C1632.83 354.857 1624.73 360.932 1618.65 368.031C1612.63 374.95 1608.98 382.411 1607.72 390.415C1606.51 398.239 1607.86 406.064 1611.77 413.891C1615.01 420.392 1618.86 425.24 1623.31 428.432C1627.89 431.564 1632.85 433.522 1638.21 434.308C1643.5 434.972 1648.95 435.035 1654.55 434.496C1660.21 433.777 1665.72 432.907 1671.07 431.887C1676.49 430.686 1681.52 429.755 1686.15 429.096C1690.79 428.436 1694.82 428.528 1698.25 429.372C1701.62 430.096 1704.08 432.024 1705.65 435.154C1707.45 438.766 1707.39 442.257 1705.46 445.627C1703.59 448.816 1700.19 451.642 1695.26 454.107C1690.92 456.272 1685.59 457.955 1679.27 459.155C1672.89 460.235 1666.27 460.684 1659.41 460.5C1652.55 460.316 1645.99 459.38 1639.73 457.691L1639.62 489.561C1646.79 491.249 1654.28 492.096 1662.1 492.1C1669.99 491.923 1677.84 490.933 1685.67 489.132C1693.55 487.15 1701.05 484.385 1708.15 480.838C1717.54 476.148 1725.37 470.434 1731.63 463.696C1734.81 460.18 1737.4 456.504 1739.39 452.671C1732.48 530.213 1667.34 591 1588 591C1564.64 591 1542.52 585.729 1522.74 576.315L1604.53 535.476L1591.45 509.287L1523.54 543.198L1550.86 430.722L1540.22 409.41L1437.54 460.686C1436.53 453.603 1436 446.363 1436 439C1436 355.053 1504.05 287 1588 287ZM1486.27 551.935C1467.68 535.177 1453.25 513.896 1444.71 489.824L1509.05 457.695L1486.27 551.935ZM1498.57 386.524L1511.91 413.255L1549.48 394.495L1599.36 494.371L1632.41 477.866L1582.53 377.99L1620.46 359.051L1607.11 332.32L1498.57 386.524Z" fill="url(#paint1_radial_5106_80)"/>
<path d="M1588 287C1663.09 287 1725.45 341.444 1737.78 413.008C1734.85 407.974 1731.46 404.105 1727.6 401.4C1722.97 398.148 1717.98 396.129 1712.62 395.344C1707.2 394.438 1701.7 394.255 1696.1 394.794C1690.5 395.333 1684.96 396.142 1679.49 397.223C1674.01 398.303 1668.95 399.173 1664.32 399.833C1659.68 400.493 1655.68 400.46 1652.31 399.736C1649 398.832 1646.56 396.815 1645 393.685C1643.44 390.554 1643.5 387.665 1645.18 385.018C1646.81 382.25 1649.61 379.874 1653.58 377.89C1657.08 376.146 1661.41 374.733 1666.59 373.652C1671.82 372.391 1677.42 371.552 1683.38 371.134C1689.4 370.535 1695.33 370.507 1701.17 371.052L1700.64 338.821C1691.91 337.914 1682.43 338.361 1672.2 340.161C1661.97 341.962 1652.22 345.177 1642.95 349.807C1632.83 354.857 1624.73 360.932 1618.65 368.031C1612.63 374.95 1608.98 382.411 1607.72 390.415C1606.51 398.239 1607.86 406.064 1611.77 413.891C1615.01 420.392 1618.86 425.24 1623.31 428.432C1627.89 431.564 1632.85 433.522 1638.21 434.308C1643.5 434.972 1648.95 435.035 1654.55 434.496C1660.21 433.777 1665.72 432.907 1671.07 431.887C1676.49 430.686 1681.52 429.755 1686.15 429.096C1690.79 428.436 1694.82 428.528 1698.25 429.372C1701.62 430.096 1704.08 432.024 1705.65 435.154C1707.45 438.766 1707.39 442.257 1705.46 445.627C1703.59 448.816 1700.19 451.642 1695.26 454.107C1690.92 456.272 1685.59 457.955 1679.27 459.155C1672.89 460.235 1666.27 460.684 1659.41 460.5C1652.55 460.316 1645.99 459.38 1639.73 457.691L1639.62 489.561C1646.79 491.249 1654.28 492.096 1662.1 492.1C1669.99 491.923 1677.84 490.933 1685.67 489.132C1693.55 487.15 1701.05 484.385 1708.15 480.838C1717.54 476.148 1725.37 470.434 1731.63 463.696C1734.81 460.18 1737.4 456.504 1739.39 452.671C1732.48 530.213 1667.34 591 1588 591C1564.64 591 1542.52 585.729 1522.74 576.315L1604.53 535.476L1591.45 509.287L1523.54 543.198L1550.86 430.722L1540.22 409.41L1437.54 460.686C1436.53 453.603 1436 446.363 1436 439C1436 355.053 1504.05 287 1588 287ZM1486.27 551.935C1467.68 535.177 1453.25 513.896 1444.71 489.824L1509.05 457.695L1486.27 551.935ZM1498.57 386.524L1511.91 413.255L1549.48 394.495L1599.36 494.371L1632.41 477.866L1582.53 377.99L1620.46 359.051L1607.11 332.32L1498.57 386.524Z" fill="url(#paint2_radial_5106_80)"/>
</g>
<defs>
<linearGradient id="paint0_linear_5106_80" x1="1411.31" y1="0" x2="2484.5" y2="0" gradientUnits="userSpaceOnUse">
<stop stop-color="#E08F51"/>
<stop offset="0.758784" stop-color="#BB5A55"/>
</linearGradient>
<radialGradient id="paint1_radial_5106_80" cx="0" cy="0" r="1" gradientUnits="userSpaceOnUse" gradientTransform="translate(1588.03 439) rotate(90) scale(152 152.033)">
<stop offset="0.485" stop-color="#E08F51"/>
<stop offset="1" stop-color="#BB5A55"/>
</radialGradient>
<radialGradient id="paint2_radial_5106_80" cx="0" cy="0" r="1" gradientUnits="userSpaceOnUse" gradientTransform="translate(1588.03 439) rotate(90) scale(152 152.033)">
<stop offset="0.485" stop-color="#E08F51"/>
<stop offset="1" stop-color="#BB5A55"/>
</radialGradient>
</defs>
</svg>
